<svg xmlns="http://www.w3.org/2000/svg" width="58" height="58" viewBox="0 0 58 58"><defs><clipPath id="o06la"><path fill="#fff" d="M10 0h38c5.523 0 10 4.477 10 10v38c0 5.523-4.477 10-10 10H10C4.477 58 0 53.523 0 48V10C0 4.477 4.477 0 10 0zm12.02 35.05c-1.318 1.363-1.318 3.571 0 4.933a3.295 3.295 0 0 0 4.77 0l8.24-8.52c1.317-1.362 1.317-3.57 0-4.933l-8.24-8.52a3.295 3.295 0 0 0-4.77 0c-1.318 1.362-1.318 3.57 0 4.933l5.854 6.053z"/></clipPath></defs><g><g><path fill="none" stroke="#535353" stroke-miterlimit="50" stroke-width="4" d="M10 0h38c5.523 0 10 4.477 10 10v38c0 5.523-4.477 10-10 10H10C4.477 58 0 53.523 0 48V10C0 4.477 4.477 0 10 0zm12.02 35.05c-1.318 1.363-1.318 3.571 0 4.933a3.295 3.295 0 0 0 4.77 0l8.24-8.52s0 0 0 0c1.317-1.362 1.317-3.57 0-4.933l-8.24-8.52a3.295 3.295 0 0 0-4.77 0c-1.318 1.362-1.318 3.57 0 4.933l5.854 6.053z" clip-path="url(&quot;#o06la&quot;)"/></g></g></svg>