<svg xmlns:xlink="http://www.w3.org/1999/xlink" width="640" height="640"><defs><path d="M48.82.03l.4.04.4.06.4.07.38.09.39.1.37.12.37.13.36.15.36.15.35.18.34.18.33.2.32.21.32.22.3.23.3.25.28.25.28.27.27.28.25.28.25.3.23.3.22.32.21.32.2.33.18.34.18.35.15.36.15.36.13.37.12.37.1.39.09.38.07.4.06.4.04.4.02.41.01.41v38l-.01.41-.02.41-.04.4-.06.4-.07.4-.09.38-.1.39-.12.37-.13.37-.15.36-.15.36-.18.35-.18.34-.2.33-.21.32-.22.32-.23.3-.25.3-.25.28-.27.28-.28.27-.28.25-.3.25-.3.23-.32.22-.32.21-.33.2-.34.18-.35.18-.36.15-.36.15-.37.13-.37.12-.39.1-.38.09-.4.07-.4.06-.4.04-.41.02L48 58H10l-.41-.01-.41-.02-.4-.04-.4-.06-.4-.07-.38-.09-.39-.1-.37-.12-.37-.13-.36-.15-.36-.15-.35-.18-.34-.18-.33-.2-.32-.21-.32-.22-.3-.23-.3-.25-.28-.25-.28-.27-.27-.28-.25-.28-.25-.3-.23-.3-.22-.32-.21-.32-.2-.33-.18-.34-.18-.35-.15-.36-.15-.36-.13-.37-.12-.37-.1-.39-.09-.38-.07-.4-.06-.4-.04-.4-.02-.41L0 48V10l.01-.41.02-.41.04-.4.06-.4.07-.4.09-.38.1-.39.12-.37.13-.37.15-.36.15-.36.18-.35.18-.34.2-.33.21-.32.22-.32.23-.3.25-.3.25-.28.27-.28.28-.27.28-.25.3-.25.3-.23.32-.22.32-.21.33-.2.34-.18.35-.18.36-.15.36-.15.37-.13.37-.12.39-.1.38-.09.4-.07.4-.06.4-.04.41-.02L10 0h38l.41.01.41.02zM32.71 17.11l-.37.13-.36.17-.34.22-.32.27-.01.02-.02.01-.02.02-.02.02-.01.01-.02.02-.01.01-8.24 8.52-.28.33-.23.35-.19.38-.14.39-.09.4-.05.41v.41l.05.41.09.4.14.4.19.37.23.35.28.33 8.24 8.52.3.28.33.24.35.19.37.15.38.1.38.05.39.01.39-.03.38-.09.37-.12.36-.18.34-.22.32-.27.02-.01.01-.02.02-.02.02-.01.01-.02.02-.02.01-.01.28-.33.23-.35.19-.37.14-.4.1-.4.04-.41v-.41l-.04-.41-.1-.4-.14-.39-.19-.38-.23-.35-.28-.33L30.13 29l5.85-6.06.28-.33.24-.35.18-.37.14-.4.1-.4.04-.41v-.41l-.04-.41-.1-.4-.14-.39-.18-.38-.24-.35-.28-.33-.3-.28-.33-.24-.35-.19-.37-.14-.38-.11-.38-.05-.39-.01-.39.04-.38.08z" id="a"/></defs><use xlink:href="#a" fill-opacity="0"/><use xlink:href="#a" fill-opacity="0" stroke="#535353" stroke-width="4"/></svg>